<?xml version="1.0" encoding="utf-8"?>
<!-- Generator: Adobe Illustrator 25.4.1, SVG Export Plug-In . SVG Version: 6.00 Build 0)  -->
<svg version="1.1" id="Layer_1" xmlns="http://www.w3.org/2000/svg" xmlns:xlink="http://www.w3.org/1999/xlink" x="0px" y="0px"
	 viewBox="0 0 100 100" style="enable-background:new 0 0 100 100;" xml:space="preserve">
<g>
	<path d="M31.42,98.77c-8.28,0-15.47-2.98-21.36-8.87c-5.89-5.88-8.88-13.06-8.88-21.34V61.8h23.51v6.62c0,1.9,0.61,3.35,1.97,4.71
		c1.38,1.37,2.84,1.98,4.76,1.98c1.92,0,3.38-0.61,4.75-1.98c1.37-1.36,1.97-2.81,1.97-4.71V61.8H61.7v6.62
		c0,1.9,0.56,3.35,1.93,4.71c1.37,1.37,2.84,1.98,4.76,1.98c1.92,0,3.38-0.61,4.76-1.98c1.37-1.36,1.97-2.81,1.97-4.71v-0.52
		c-0.12-1.62-0.74-2.93-1.94-4.13c-1.36-1.37-2.82-1.97-4.71-1.97H61.7V38.28h6.77c1.9,0,3.35-0.61,4.71-1.97
		c1.37-1.37,1.97-2.84,1.97-4.76c0-1.92-0.61-3.38-1.97-4.75c-1.36-1.36-2.82-1.98-4.71-1.98H61.7V1.3l6.92,0.01
		c8.27,0,15.45,2.99,21.33,8.88c5.88,5.89,8.87,13.08,8.87,21.36c0,7.05-2.06,13.25-6.14,18.49c4.08,5.24,6.14,11.44,6.14,18.49
		c0,8.28-2.98,15.47-8.86,21.36c-5.72,5.72-13.61,8.88-22.22,8.88l-0.21,0c-6.64-0.25-12.63-2.36-17.6-6.15
		C44.68,96.7,38.48,98.77,31.42,98.77L31.42,98.77z"/>
	<path d="M31.44,61.75c-16.69,0-30.26-13.58-30.26-30.26c0-16.69,13.58-30.26,30.26-30.26c16.69,0,30.27,13.58,30.27,30.26
		C61.7,48.17,48.12,61.75,31.44,61.75L31.44,61.75z M31.44,24.53c-3.84,0-6.96,3.12-6.96,6.96c0,3.84,3.12,6.96,6.96,6.96
		c3.84,0,6.96-3.12,6.96-6.96C38.4,27.65,35.27,24.53,31.44,24.53L31.44,24.53z"/>
</g>
</svg>
