<svg id="Layer_1" data-name="Layer 1" xmlns="http://www.w3.org/2000/svg" viewBox="0 0 581.18 87.06"><defs><style>.cls-1{fill:#fff;}</style></defs><path class="cls-1" d="M131.18,353.55h11.37l46.93,69.78h.23V353.55h8.41v84.1h-8.41l-49.89-74h-.23v74h-8.41Z" transform="translate(-15.81 -352.07)"/><path class="cls-1" d="M250.39,352.07c23.64,0,44.55,18.75,44.55,43.53s-21,43.52-44.55,43.52c-23.87,0-44.44-19.43-44.44-43.07C206,369.57,228,352.07,250.39,352.07Zm0,79.44c19.43,0,36.14-15.8,36.14-35.8a36.09,36.09,0,1,0-72.17.34C214.36,415.26,230.84,431.51,250.39,431.51Z" transform="translate(-15.81 -352.07)"/><path class="cls-1" d="M304.71,374.57c.34-14.21,10-22.5,21.25-22.5,12.73,0,21.25,10,21.25,21.59,0,8.07-4.32,12.39-8.64,15.8,12.39,6.48,14.21,17.5,14.21,22.27,0,16.6-12.62,27.39-26.48,27.39-8.18,0-26.25-4.66-27.16-27.84h8.41c.34,4.2.68,7.61,2.95,11.25a18.06,18.06,0,0,0,15.8,9c9.77,0,18.07-7.05,18.07-19.32a18.83,18.83,0,0,0-14.32-18c-2.5-.57-4.77-.68-9.77-.79v-7.39c.45,0,1.93.11,2.84.11,13.41,0,15.68-9.09,15.68-13.18,0-5-3.07-13.3-13.07-13.3-6.7,0-12.61,5.46-12.61,14.89Z" transform="translate(-15.81 -352.07)"/><path class="cls-1" d="M359.36,353.55h21.37c11.25,0,16.82,1.36,20.68,3.18a26,26,0,0,1,15,24c0,12.16-8.76,24.55-25,25.57l23.76,31.37H404.6l-28.53-38.08c10.68,0,14.32-.11,18.07-1.25A18.44,18.44,0,0,0,408,380.48c0-6.59-3.74-13.41-9.2-16.14-5-2.61-9.32-3.18-16.37-3.18H367.77v76.49h-8.41Z" transform="translate(-15.81 -352.07)"/><path class="cls-1" d="M423.11,353.55h24.55c10.34,0,20.57,2.5,27.39,6.93,14.78,9.2,19.09,25.23,19.09,35.34,0,7.85-3.06,24.66-19.09,34.89-6.82,4.44-17.05,6.94-27.39,6.94H423.11ZM431.52,430h12.17c7.61,0,19.2,0,28.86-6.82a35.42,35.42,0,0,0,13.18-27.73,34.62,34.62,0,0,0-14.32-27.84c-7.5-4.89-15.34-6.48-27.72-6.48H431.52Z" transform="translate(-15.81 -352.07)"/><path class="cls-1" d="M490.27,353.55h8.64l20.57,73.3h.23l20-73.3h7.84l20.12,73.19h.22l20.58-73.19H597l-24.1,84.1H562.21l-18.52-69h-.23l-18.41,69h-10.8Z" transform="translate(-15.81 -352.07)"/><path class="cls-1" d="M42.8,439.13a26.12,26.12,0,0,1-19.06-7.91,26.06,26.06,0,0,1-7.93-19.05v-6h21V412a5.5,5.5,0,0,0,1.76,4.2,6,6,0,0,0,8.49,0,5.52,5.52,0,0,0,1.76-4.2v-5.91h21V412a5.47,5.47,0,0,0,1.72,4.2,6,6,0,0,0,8.49,0,5.52,5.52,0,0,0,1.76-4.2v-.46a6,6,0,0,0-5.93-5.45h-6v-21h6a5.52,5.52,0,0,0,4.2-1.76,6,6,0,0,0-4.2-10.25h-6v-21H76a27.14,27.14,0,0,1,21.47,43.49,27.21,27.21,0,0,1-2.43,35.56,27.72,27.72,0,0,1-19.84,7.92H75a27.17,27.17,0,0,1-15.71-5.49,26.19,26.19,0,0,1-16.53,5.5Z" transform="translate(-15.81 -352.07)"/><path class="cls-1" d="M42.82,406.09a27,27,0,1,1,27-27,27,27,0,0,1-27,27Zm0-33.22A6.21,6.21,0,1,0,49,379.08a6.22,6.22,0,0,0-6.21-6.21Z" transform="translate(-15.81 -352.07)"/></svg>